<svg width="16" height="16" viewBox="0 0 16 16" fill="none" xmlns="http://www.w3.org/2000/svg">
<path d="M9.89087 3.95633V11.869C9.89087 12.2603 10.0069 12.6428 10.2243 12.9681C10.4416 13.2934 10.7506 13.5469 11.112 13.6966C11.4735 13.8464 11.8712 13.8855 12.255 13.8092C12.6387 13.7329 12.9912 13.5445 13.2678 13.2678C13.5445 12.9912 13.7329 12.6387 13.8092 12.255C13.8855 11.8712 13.8464 11.4735 13.6966 11.112C13.5469 10.7506 13.2934 10.4416 12.9681 10.2243C12.6428 10.0069 12.2603 9.89087 11.869 9.89087H3.95633C3.56508 9.89087 3.18262 10.0069 2.85731 10.2243C2.532 10.4416 2.27845 10.7506 2.12873 11.112C1.97901 11.4735 1.93983 11.8712 2.01616 12.255C2.09249 12.6387 2.28089 12.9912 2.55755 13.2678C2.8342 13.5445 3.18668 13.7329 3.57041 13.8092C3.95414 13.8855 4.35188 13.8464 4.71335 13.6966C5.07481 13.5469 5.38376 13.2934 5.60113 12.9681C5.81849 12.6428 5.93451 12.2603 5.93451 11.869V3.95633C5.93451 3.56508 5.81849 3.18262 5.60113 2.85731C5.38376 2.532 5.07481 2.27845 4.71335 2.12873C4.35188 1.97901 3.95414 1.93983 3.57041 2.01616C3.18668 2.09249 2.8342 2.28089 2.55755 2.55755C2.28089 2.8342 2.09249 3.18668 2.01616 3.57041C1.93983 3.95414 1.97901 4.35188 2.12873 4.71335C2.27845 5.07481 2.532 5.38376 2.85731 5.60113C3.18262 5.81849 3.56508 5.93451 3.95633 5.93451H11.869C12.2603 5.93451 12.6428 5.81849 12.9681 5.60113C13.2934 5.38376 13.5469 5.07481 13.6966 4.71335C13.8464 4.35188 13.8855 3.95414 13.8092 3.57041C13.7329 3.18668 13.5445 2.8342 13.2678 2.55755C12.9912 2.28089 12.6387 2.09249 12.255 2.01616C11.8712 1.93983 11.4735 1.97901 11.112 2.12873C10.7506 2.27845 10.4416 2.532 10.2243 2.85731C10.0069 3.18262 9.89087 3.56508 9.89087 3.95633Z" stroke="#1D1235" stroke-width="1.1" stroke-linecap="round" stroke-linejoin="round"/>
</svg>
