<svg width="20" height="20" viewBox="0 0 20 20" fill="none" xmlns="http://www.w3.org/2000/svg">
<g opacity="0.6">
<path d="M3.24072 8.05245C3.66109 8.33333 4.24628 8.33333 5.41667 8.33333C6.58706 8.33333 7.17225 8.33333 7.59262 8.05245C7.77461 7.93085 7.93086 7.7746 8.05245 7.59262C8.33333 7.17224 8.33333 6.58705 8.33333 5.41667C8.33333 4.24628 8.33333 3.66109 8.05245 3.24072C7.93086 3.05873 7.77461 2.90248 7.59262 2.78088C7.17225 2.5 6.58706 2.5 5.41667 2.5C4.24628 2.5 3.66109 2.5 3.24072 2.78088C3.05873 2.90248 2.90248 3.05873 2.78089 3.24072C2.5 3.66109 2.5 4.24628 2.5 5.41667C2.5 6.58705 2.5 7.17224 2.78089 7.59262C2.90248 7.7746 3.05873 7.93085 3.24072 8.05245Z" stroke="#8752FE" stroke-width="1.25" stroke-linejoin="round"/>
<path d="M3.24072 8.05245C3.66109 8.33333 4.24628 8.33333 5.41667 8.33333C6.58706 8.33333 7.17225 8.33333 7.59262 8.05245C7.77461 7.93085 7.93086 7.7746 8.05245 7.59262C8.33333 7.17224 8.33333 6.58705 8.33333 5.41667C8.33333 4.24628 8.33333 3.66109 8.05245 3.24072C7.93086 3.05873 7.77461 2.90248 7.59262 2.78088C7.17225 2.5 6.58706 2.5 5.41667 2.5C4.24628 2.5 3.66109 2.5 3.24072 2.78088C3.05873 2.90248 2.90248 3.05873 2.78089 3.24072C2.5 3.66109 2.5 4.24628 2.5 5.41667C2.5 6.58705 2.5 7.17224 2.78089 7.59262C2.90248 7.7746 3.05873 7.93085 3.24072 8.05245Z" stroke="#1D1235" stroke-opacity="0.8" stroke-width="1.25" stroke-linejoin="round"/>
<path d="M12.4073 8.05245C12.8277 8.33333 13.4129 8.33333 14.5833 8.33333C15.7536 8.33333 16.3389 8.33333 16.7592 8.05245C16.9412 7.93085 17.0975 7.7746 17.219 7.59262C17.5 7.17224 17.5 6.58705 17.5 5.41667C17.5 4.24628 17.5 3.66109 17.219 3.24072C17.0975 3.05873 16.9412 2.90248 16.7592 2.78088C16.3389 2.5 15.7536 2.5 14.5833 2.5C13.4129 2.5 12.8277 2.5 12.4073 2.78088C12.2254 2.90248 12.0691 3.05873 11.9475 3.24072C11.6666 3.66109 11.6666 4.24628 11.6666 5.41667C11.6666 6.58705 11.6666 7.17224 11.9475 7.59262C12.0691 7.7746 12.2254 7.93085 12.4073 8.05245Z" stroke="#8752FE" stroke-width="1.25" stroke-linejoin="round"/>
<path d="M12.4073 8.05245C12.8277 8.33333 13.4129 8.33333 14.5833 8.33333C15.7536 8.33333 16.3389 8.33333 16.7592 8.05245C16.9412 7.93085 17.0975 7.7746 17.219 7.59262C17.5 7.17224 17.5 6.58705 17.5 5.41667C17.5 4.24628 17.5 3.66109 17.219 3.24072C17.0975 3.05873 16.9412 2.90248 16.7592 2.78088C16.3389 2.5 15.7536 2.5 14.5833 2.5C13.4129 2.5 12.8277 2.5 12.4073 2.78088C12.2254 2.90248 12.0691 3.05873 11.9475 3.24072C11.6666 3.66109 11.6666 4.24628 11.6666 5.41667C11.6666 6.58705 11.6666 7.17224 11.9475 7.59262C12.0691 7.7746 12.2254 7.93085 12.4073 8.05245Z" stroke="#1D1235" stroke-opacity="0.8" stroke-width="1.25" stroke-linejoin="round"/>
<path d="M3.24072 17.2191C3.66109 17.5 4.24628 17.5 5.41667 17.5C6.58706 17.5 7.17225 17.5 7.59262 17.2191C7.77461 17.0975 7.93086 16.9413 8.05245 16.7593C8.33333 16.3389 8.33333 15.7538 8.33333 14.5834C8.33333 13.4129 8.33333 12.8278 8.05245 12.4074C7.93086 12.2254 7.77461 12.0692 7.59262 11.9476C7.17225 11.6667 6.58706 11.6667 5.41667 11.6667C4.24628 11.6667 3.66109 11.6667 3.24072 11.9476C3.05873 12.0692 2.90248 12.2254 2.78089 12.4074C2.5 12.8278 2.5 13.4129 2.5 14.5834C2.5 15.7538 2.5 16.3389 2.78089 16.7593C2.90248 16.9413 3.05873 17.0975 3.24072 17.2191Z" stroke="#8752FE" stroke-width="1.25" stroke-linejoin="round"/>
<path d="M3.24072 17.2191C3.66109 17.5 4.24628 17.5 5.41667 17.5C6.58706 17.5 7.17225 17.5 7.59262 17.2191C7.77461 17.0975 7.93086 16.9413 8.05245 16.7593C8.33333 16.3389 8.33333 15.7538 8.33333 14.5834C8.33333 13.4129 8.33333 12.8278 8.05245 12.4074C7.93086 12.2254 7.77461 12.0692 7.59262 11.9476C7.17225 11.6667 6.58706 11.6667 5.41667 11.6667C4.24628 11.6667 3.66109 11.6667 3.24072 11.9476C3.05873 12.0692 2.90248 12.2254 2.78089 12.4074C2.5 12.8278 2.5 13.4129 2.5 14.5834C2.5 15.7538 2.5 16.3389 2.78089 16.7593C2.90248 16.9413 3.05873 17.0975 3.24072 17.2191Z" stroke="#1D1235" stroke-opacity="0.8" stroke-width="1.25" stroke-linejoin="round"/>
<path d="M12.4073 17.2191C12.8277 17.5 13.4129 17.5 14.5833 17.5C15.7536 17.5 16.3389 17.5 16.7592 17.2191C16.9412 17.0975 17.0975 16.9413 17.219 16.7593C17.5 16.3389 17.5 15.7538 17.5 14.5834C17.5 13.4129 17.5 12.8278 17.219 12.4074C17.0975 12.2254 16.9412 12.0692 16.7592 11.9476C16.3389 11.6667 15.7536 11.6667 14.5833 11.6667C13.4129 11.6667 12.8277 11.6667 12.4073 11.9476C12.2254 12.0692 12.0691 12.2254 11.9475 12.4074C11.6666 12.8278 11.6666 13.4129 11.6666 14.5834C11.6666 15.7538 11.6666 16.3389 11.9475 16.7593C12.0691 16.9413 12.2254 17.0975 12.4073 17.2191Z" stroke="#8752FE" stroke-width="1.25" stroke-linejoin="round"/>
<path d="M12.4073 17.2191C12.8277 17.5 13.4129 17.5 14.5833 17.5C15.7536 17.5 16.3389 17.5 16.7592 17.2191C16.9412 17.0975 17.0975 16.9413 17.219 16.7593C17.5 16.3389 17.5 15.7538 17.5 14.5834C17.5 13.4129 17.5 12.8278 17.219 12.4074C17.0975 12.2254 16.9412 12.0692 16.7592 11.9476C16.3389 11.6667 15.7536 11.6667 14.5833 11.6667C13.4129 11.6667 12.8277 11.6667 12.4073 11.9476C12.2254 12.0692 12.0691 12.2254 11.9475 12.4074C11.6666 12.8278 11.6666 13.4129 11.6666 14.5834C11.6666 15.7538 11.6666 16.3389 11.9475 16.7593C12.0691 16.9413 12.2254 17.0975 12.4073 17.2191Z" stroke="#1D1235" stroke-opacity="0.8" stroke-width="1.25" stroke-linejoin="round"/>
</g>
</svg>
