<svg width="20" height="20" viewBox="0 0 20 20" fill="none" xmlns="http://www.w3.org/2000/svg">
<path d="M13.3334 10C13.3334 10 10.8785 13.3333 10.0001 13.3333C9.12165 13.3333 6.66675 10 6.66675 10M10.0001 12.9167V2.5" stroke="#515B69" stroke-width="1.25" stroke-linecap="round" stroke-linejoin="round"/>
<path d="M14.1668 6.66663C16.0078 6.66663 17.5001 8.15901 17.5001 9.99996V12.0833C17.5001 14.0288 17.5001 15.0015 17.1065 15.738C16.7958 16.3194 16.3195 16.7955 15.7381 17.1064C15.0018 17.5 14.029 17.5 12.0834 17.5H7.91712C5.97128 17.5 4.99836 17.5 4.26191 17.1062C3.68066 16.7955 3.20458 16.3195 2.89384 15.7382C2.50012 15.0017 2.50012 14.0288 2.50012 12.083V9.99913C2.50058 8.15924 3.99168 6.66767 5.83156 6.66663H5.83346" stroke="#515B69" stroke-width="1.25" stroke-linecap="round" stroke-linejoin="round"/>
</svg>
