<svg width="16" height="16" viewBox="0 0 16 16" fill="none" xmlns="http://www.w3.org/2000/svg">
<g clip-path="url(#clip0_4_3277)">
<path d="M9.38248 2.59028L8.92321 2.16637L8.9232 2.16638L9.38248 2.59028ZM10.3916 1.62593L10.0721 1.08876L10.0721 1.08876L10.3916 1.62593ZM12.4603 1.59486L12.7637 1.04844L12.7636 1.04842L12.4603 1.59486ZM14.4106 3.58727L13.8588 3.88074L13.8588 3.88083L14.4106 3.58727ZM14.3802 5.70045L13.8372 5.39097L13.8372 5.39099L14.3802 5.70045ZM13.4362 6.73131L13.8698 7.18147L13.8698 7.18146L13.4362 6.73131ZM7.16708 12.7695L6.7335 12.3194L6.7335 12.3194L7.16708 12.7695ZM5.04538 14.4558L4.81803 13.8736L4.81798 13.8736L5.04538 14.4558ZM2.36358 14.6457L2.37992 14.0209L2.37987 14.0209L2.36358 14.6457ZM2.17693 14.6408L2.16058 15.2656L2.16064 15.2656L2.17693 14.6408ZM1.42907 14.4866L1.89806 14.0735L1.89795 14.0734L1.42907 14.4866ZM1.3574 13.7108L0.734286 13.6622L0.734286 13.6622L1.3574 13.7108ZM1.3754 13.4798L1.99851 13.5283L1.99851 13.5283L1.3754 13.4798ZM1.74915 11.1454L2.32239 11.3945L2.32239 11.3945L1.74915 11.1454ZM3.19296 9.29631L2.73369 8.87241L2.73368 8.87242L3.19296 9.29631ZM9.33334 14.0416C8.98817 14.0416 8.70834 14.3215 8.70834 14.6666C8.70834 15.0118 8.98817 15.2916 9.33334 15.2916V14.6666V14.0416ZM14.6667 15.2916C15.0119 15.2916 15.2917 15.0118 15.2917 14.6666C15.2917 14.3215 15.0119 14.0416 14.6667 14.0416V14.6666V15.2916ZM9.38248 2.59028L9.84175 3.01418C10.3693 2.44261 10.5451 2.26182 10.7111 2.1631L10.3916 1.62593L10.0721 1.08876C9.71022 1.30401 9.38925 1.66145 8.92321 2.16637L9.38248 2.59028ZM10.3916 1.62593L10.7111 2.1631C11.1569 1.89796 11.704 1.88984 12.1569 2.1413L12.4603 1.59486L12.7636 1.04842C11.9215 0.580903 10.9001 0.596348 10.0721 1.08876L10.3916 1.62593ZM12.4603 1.59486L12.1569 2.14128C12.3254 2.23487 12.5062 2.41013 13.0501 2.9657L13.4967 2.52849L13.9433 2.09128C13.463 1.60065 13.1318 1.25282 12.7637 1.04844L12.4603 1.59486ZM13.4967 2.52849L13.0501 2.9657C13.5931 3.52041 13.7659 3.70609 13.8588 3.88074L14.4106 3.58727L14.9624 3.29379C14.7637 2.92016 14.4244 2.58275 13.9433 2.09128L13.4967 2.52849ZM14.4106 3.58727L13.8588 3.88083C14.1102 4.35319 14.1018 4.92669 13.8372 5.39097L14.3802 5.70045L14.9232 6.00992C15.4002 5.17298 15.4149 4.14426 14.9624 3.2937L14.4106 3.58727ZM14.3802 5.70045L13.8372 5.39099C13.7394 5.56266 13.5614 5.74298 13.0026 6.28117L13.4362 6.73131L13.8698 7.18146C14.3648 6.70468 14.7137 6.37751 14.9232 6.00991L14.3802 5.70045ZM13.4362 6.73131L13.0026 6.28116L6.7335 12.3194L7.16708 12.7695L7.60065 13.2197L13.8698 7.18147L13.4362 6.73131ZM7.16708 12.7695L6.7335 12.3194C5.69769 13.3171 5.29851 13.686 4.81803 13.8736L5.04538 14.4558L5.27274 15.038C6.04018 14.7383 6.63951 14.1454 7.60066 13.2197L7.16708 12.7695ZM5.04538 14.4558L4.81798 13.8736C4.33887 14.0608 3.80338 14.0581 2.37992 14.0209L2.36358 14.6457L2.34725 15.2705C3.66758 15.305 4.50398 15.3383 5.27279 15.0379L5.04538 14.4558ZM2.36358 14.6457L2.37987 14.0209L2.19322 14.0161L2.17693 14.6408L2.16064 15.2656L2.34729 15.2705L2.36358 14.6457ZM2.17693 14.6408L2.19329 14.0161C2.08646 14.0133 2.00401 14.0111 1.93366 14.0074C1.86293 14.0037 1.82071 13.9992 1.79479 13.9948C1.76926 13.9906 1.77754 13.9893 1.80178 14.0005C1.83143 14.0143 1.86729 14.0386 1.89806 14.0735L1.42907 14.4866L0.960082 14.8998C1.1536 15.1195 1.39678 15.1957 1.58902 15.2278C1.76184 15.2566 1.97028 15.2606 2.16058 15.2656L2.17693 14.6408ZM1.42907 14.4866L1.89795 14.0734C1.96827 14.1532 1.96239 14.227 1.95931 14.1718C1.9577 14.1429 1.95784 14.0979 1.96168 14.025C1.9655 13.9525 1.97204 13.868 1.98051 13.7593L1.3574 13.7108L0.734286 13.6622C0.719093 13.8572 0.701484 14.0661 0.71125 14.2414C0.721948 14.4333 0.768476 14.6824 0.960193 14.8999L1.42907 14.4866ZM1.3574 13.7108L1.98051 13.7593L1.99851 13.5283L1.3754 13.4798L0.752287 13.4312L0.734286 13.6622L1.3574 13.7108ZM1.3754 13.4798L1.99851 13.5283C2.09507 12.2889 2.13996 11.8144 2.32239 11.3945L1.74915 11.1454L1.17591 10.8964C0.890685 11.5529 0.8423 12.2758 0.752286 13.4312L1.3754 13.4798ZM1.74915 11.1454L2.32239 11.3945C2.50434 10.9757 2.81714 10.625 3.65225 9.72021L3.19296 9.29631L2.73368 8.87242C1.95547 9.7156 1.46161 10.2388 1.17591 10.8964L1.74915 11.1454ZM3.19296 9.29631L3.65224 9.72021L9.84175 3.01418L9.38248 2.59028L8.9232 2.16638L2.73369 8.87241L3.19296 9.29631ZM8.66668 2.66665L8.22474 3.10859L12.8914 7.77525L13.3333 7.33331L13.7753 6.89137L9.10862 2.2247L8.66668 2.66665ZM9.33334 14.6666V15.2916H14.6667V14.6666V14.0416H9.33334V14.6666Z" fill="#8752FE"/>
<path d="M9.38248 2.59028L8.92321 2.16637L8.9232 2.16638L9.38248 2.59028ZM10.3916 1.62593L10.0721 1.08876L10.0721 1.08876L10.3916 1.62593ZM12.4603 1.59486L12.7637 1.04844L12.7636 1.04842L12.4603 1.59486ZM14.4106 3.58727L13.8588 3.88074L13.8588 3.88083L14.4106 3.58727ZM14.3802 5.70045L13.8372 5.39097L13.8372 5.39099L14.3802 5.70045ZM13.4362 6.73131L13.8698 7.18147L13.8698 7.18146L13.4362 6.73131ZM7.16708 12.7695L6.7335 12.3194L6.7335 12.3194L7.16708 12.7695ZM5.04538 14.4558L4.81803 13.8736L4.81798 13.8736L5.04538 14.4558ZM2.36358 14.6457L2.37992 14.0209L2.37987 14.0209L2.36358 14.6457ZM2.17693 14.6408L2.16058 15.2656L2.16064 15.2656L2.17693 14.6408ZM1.42907 14.4866L1.89806 14.0735L1.89795 14.0734L1.42907 14.4866ZM1.3574 13.7108L0.734286 13.6622L0.734286 13.6622L1.3574 13.7108ZM1.3754 13.4798L1.99851 13.5283L1.99851 13.5283L1.3754 13.4798ZM1.74915 11.1454L2.32239 11.3945L2.32239 11.3945L1.74915 11.1454ZM3.19296 9.29631L2.73369 8.87241L2.73368 8.87242L3.19296 9.29631ZM9.33334 14.0416C8.98817 14.0416 8.70834 14.3215 8.70834 14.6666C8.70834 15.0118 8.98817 15.2916 9.33334 15.2916V14.6666V14.0416ZM14.6667 15.2916C15.0119 15.2916 15.2917 15.0118 15.2917 14.6666C15.2917 14.3215 15.0119 14.0416 14.6667 14.0416V14.6666V15.2916ZM9.38248 2.59028L9.84175 3.01418C10.3693 2.44261 10.5451 2.26182 10.7111 2.1631L10.3916 1.62593L10.0721 1.08876C9.71022 1.30401 9.38925 1.66145 8.92321 2.16637L9.38248 2.59028ZM10.3916 1.62593L10.7111 2.1631C11.1569 1.89796 11.704 1.88984 12.1569 2.1413L12.4603 1.59486L12.7636 1.04842C11.9215 0.580903 10.9001 0.596348 10.0721 1.08876L10.3916 1.62593ZM12.4603 1.59486L12.1569 2.14128C12.3254 2.23487 12.5062 2.41013 13.0501 2.9657L13.4967 2.52849L13.9433 2.09128C13.463 1.60065 13.1318 1.25282 12.7637 1.04844L12.4603 1.59486ZM13.4967 2.52849L13.0501 2.9657C13.5931 3.52041 13.7659 3.70609 13.8588 3.88074L14.4106 3.58727L14.9624 3.29379C14.7637 2.92016 14.4244 2.58275 13.9433 2.09128L13.4967 2.52849ZM14.4106 3.58727L13.8588 3.88083C14.1102 4.35319 14.1018 4.92669 13.8372 5.39097L14.3802 5.70045L14.9232 6.00992C15.4002 5.17298 15.4149 4.14426 14.9624 3.2937L14.4106 3.58727ZM14.3802 5.70045L13.8372 5.39099C13.7394 5.56266 13.5614 5.74298 13.0026 6.28117L13.4362 6.73131L13.8698 7.18146C14.3648 6.70468 14.7137 6.37751 14.9232 6.00991L14.3802 5.70045ZM13.4362 6.73131L13.0026 6.28116L6.7335 12.3194L7.16708 12.7695L7.60065 13.2197L13.8698 7.18147L13.4362 6.73131ZM7.16708 12.7695L6.7335 12.3194C5.69769 13.3171 5.29851 13.686 4.81803 13.8736L5.04538 14.4558L5.27274 15.038C6.04018 14.7383 6.63951 14.1454 7.60066 13.2197L7.16708 12.7695ZM5.04538 14.4558L4.81798 13.8736C4.33887 14.0608 3.80338 14.0581 2.37992 14.0209L2.36358 14.6457L2.34725 15.2705C3.66758 15.305 4.50398 15.3383 5.27279 15.0379L5.04538 14.4558ZM2.36358 14.6457L2.37987 14.0209L2.19322 14.0161L2.17693 14.6408L2.16064 15.2656L2.34729 15.2705L2.36358 14.6457ZM2.17693 14.6408L2.19329 14.0161C2.08646 14.0133 2.00401 14.0111 1.93366 14.0074C1.86293 14.0037 1.82071 13.9992 1.79479 13.9948C1.76926 13.9906 1.77754 13.9893 1.80178 14.0005C1.83143 14.0143 1.86729 14.0386 1.89806 14.0735L1.42907 14.4866L0.960082 14.8998C1.1536 15.1195 1.39678 15.1957 1.58902 15.2278C1.76184 15.2566 1.97028 15.2606 2.16058 15.2656L2.17693 14.6408ZM1.42907 14.4866L1.89795 14.0734C1.96827 14.1532 1.96239 14.227 1.95931 14.1718C1.9577 14.1429 1.95784 14.0979 1.96168 14.025C1.9655 13.9525 1.97204 13.868 1.98051 13.7593L1.3574 13.7108L0.734286 13.6622C0.719093 13.8572 0.701484 14.0661 0.71125 14.2414C0.721948 14.4333 0.768476 14.6824 0.960193 14.8999L1.42907 14.4866ZM1.3574 13.7108L1.98051 13.7593L1.99851 13.5283L1.3754 13.4798L0.752287 13.4312L0.734286 13.6622L1.3574 13.7108ZM1.3754 13.4798L1.99851 13.5283C2.09507 12.2889 2.13996 11.8144 2.32239 11.3945L1.74915 11.1454L1.17591 10.8964C0.890685 11.5529 0.8423 12.2758 0.752286 13.4312L1.3754 13.4798ZM1.74915 11.1454L2.32239 11.3945C2.50434 10.9757 2.81714 10.625 3.65225 9.72021L3.19296 9.29631L2.73368 8.87242C1.95547 9.7156 1.46161 10.2388 1.17591 10.8964L1.74915 11.1454ZM3.19296 9.29631L3.65224 9.72021L9.84175 3.01418L9.38248 2.59028L8.9232 2.16638L2.73369 8.87241L3.19296 9.29631ZM8.66668 2.66665L8.22474 3.10859L12.8914 7.77525L13.3333 7.33331L13.7753 6.89137L9.10862 2.2247L8.66668 2.66665ZM9.33334 14.6666V15.2916H14.6667V14.6666V14.0416H9.33334V14.6666Z" fill="white" fill-opacity="0.6"/>
</g>
<defs>
<clipPath id="clip0_4_3277">
<rect width="16" height="16" fill="white"/>
</clipPath>
</defs>
</svg>
