<svg width="28" height="28" viewBox="0 0 28 28" fill="none" xmlns="http://www.w3.org/2000/svg">
<g clip-path="url(#clip0_4_2455)">
<path d="M17.5283 1.75H8.26935C7.96248 1.75 7.66818 1.87289 7.4512 2.09162C7.23421 2.31036 7.1123 2.60703 7.1123 2.91637V7.875L17.5283 14L22.7363 16.2155L27.9443 14V7.875L17.5283 1.75Z" fill="#21A366"/>
<path d="M7.1123 7.875H17.5283V14H7.1123V7.875Z" fill="#107C41"/>
<path d="M26.7873 1.75H17.5283V7.875H27.9443V2.91637C27.9443 2.60703 27.8224 2.31036 27.6054 2.09162C27.3884 1.87289 27.0941 1.75 26.7873 1.75Z" fill="#33C481"/>
<path d="M17.5283 14H7.1123V25.0836C7.1123 25.393 7.23421 25.6896 7.4512 25.9084C7.66818 26.1271 7.96248 26.25 8.26935 26.25H26.7873C27.0941 26.25 27.3884 26.1271 27.6054 25.9084C27.8224 25.6896 27.9443 25.393 27.9443 25.0836V20.125L17.5283 14Z" fill="#185C37"/>
<path d="M17.5283 14H27.9443V20.125H17.5283V14Z" fill="#107C41"/>
<path opacity="0.1" d="M14.6353 6.125H7.1123V22.75H14.6353C14.9418 22.7491 15.2356 22.6259 15.4524 22.4074C15.6692 22.1888 15.7914 21.8927 15.7923 21.5836V7.29138C15.7914 6.98232 15.6692 6.68618 15.4524 6.46764C15.2356 6.24911 14.9418 6.12592 14.6353 6.125Z" fill="#1D1235"/>
<path opacity="0.2" d="M13.7673 7H7.1123V23.625H13.7673C14.0738 23.6241 14.3676 23.5009 14.5844 23.2824C14.8012 23.0638 14.9234 22.7677 14.9243 22.4586V8.16638C14.9234 7.85732 14.8012 7.56118 14.5844 7.34264C14.3676 7.12411 14.0738 7.00092 13.7673 7Z" fill="#1D1235"/>
<path opacity="0.2" d="M13.7673 7H7.1123V21.875H13.7673C14.0738 21.8741 14.3676 21.7509 14.5844 21.5324C14.8012 21.3138 14.9234 21.0177 14.9243 20.7086V8.16638C14.9234 7.85732 14.8012 7.56118 14.5844 7.34264C14.3676 7.12411 14.0738 7.00092 13.7673 7Z" fill="#1D1235"/>
<path opacity="0.2" d="M12.8993 7H7.1123V21.875H12.8993C13.2058 21.8741 13.4996 21.7509 13.7164 21.5324C13.9332 21.3138 14.0554 21.0177 14.0563 20.7086V8.16638C14.0554 7.85732 13.9332 7.56118 13.7164 7.34264C13.4996 7.12411 13.2058 7.00092 12.8993 7Z" fill="#1D1235"/>
<path d="M1.32538 7H12.8993C13.2062 7 13.5005 7.12289 13.7174 7.34162C13.9344 7.56036 14.0563 7.85703 14.0563 8.16638V19.8336C14.0563 20.143 13.9344 20.4396 13.7174 20.6584C13.5005 20.8771 13.2062 21 12.8993 21H1.32538C1.01851 21 0.724213 20.8771 0.507225 20.6584C0.290237 20.4396 0.168335 20.143 0.168335 19.8336L0.168335 8.16638C0.168335 7.85703 0.290237 7.56036 0.507225 7.34162C0.724213 7.12289 1.01851 7 1.32538 7Z" fill="#107C41"/>
<path d="M3.23499 18.375L6.04383 13.9878L3.47108 9.625H5.54126L6.94569 12.4136C7.07473 12.6779 7.16355 12.875 7.21216 13.0051H7.23039C7.32298 12.794 7.4199 12.5886 7.52117 12.3891L9.02194 9.625H10.922L8.28327 13.9633L10.9888 18.375H8.96639L7.3441 15.3125C7.26767 15.1821 7.20289 15.045 7.15053 14.903H7.12623C7.07889 15.0419 7.01599 15.1749 6.93874 15.2994L5.26958 18.375H3.23499Z" fill="white"/>
</g>
<defs>
<clipPath id="clip0_4_2455">
<rect width="28" height="28" fill="white"/>
</clipPath>
</defs>
</svg>
