<svg width="74" height="58" viewBox="0 0 74 58" fill="none" xmlns="http://www.w3.org/2000/svg">
<g filter="url(#filter0_d_4_2037)">
<rect x="13.2538" y="8.83588" width="47.4927" height="30.9255" rx="15.4627" fill="#F0EEF5"/>
<rect x="13.806" y="9.38812" width="46.3882" height="29.821" rx="14.9105" stroke="white" stroke-width="1.10448"/>
</g>
<path d="M27.0277 29.5549V26.3817H23.8976V25.5346H27.0277V22.3614H27.9754V25.5346H31.1055V26.3817H27.9754V29.5549H27.0277ZM36.9437 19.3892V29.5549H35.6084V22.1891H33.0526V21.2702C33.871 21.2702 34.5172 21.1409 35.0053 20.8681C35.4935 20.6097 35.8094 20.1071 35.9817 19.3892H36.9437ZM46.7743 28.4493L46.7599 29.5549H40.1264C40.1551 28.9949 40.2413 28.5067 40.3849 28.076C40.5284 27.6596 40.7582 27.2863 41.0597 26.9417C41.3612 26.5971 41.6484 26.3243 41.9355 26.0945C42.2227 25.8792 42.6391 25.6063 43.156 25.2761C43.9888 24.7592 44.52 24.3715 44.7785 24.1131C45.3241 23.5962 45.5825 23.0075 45.5825 22.3614C45.5825 21.8014 45.4102 21.3419 45.0369 20.983C44.678 20.624 44.2042 20.4374 43.6155 20.4374C42.9263 20.4374 42.4237 20.6815 42.1222 21.1696C41.8207 21.6578 41.6627 22.2609 41.634 22.9931H40.3992V22.7203C40.3992 21.7153 40.7007 20.9112 41.3038 20.2938C41.9068 19.6907 42.6965 19.3749 43.6729 19.3749C44.6493 19.3749 45.4102 19.6477 45.9846 20.1789C46.5589 20.7245 46.8461 21.4425 46.8461 22.3327C46.8461 22.7203 46.7886 23.0793 46.6594 23.4239C46.5302 23.7685 46.3866 24.0413 46.2287 24.271C46.0707 24.5008 45.8266 24.7449 45.5108 25.0033C45.1949 25.2618 44.9221 25.4628 44.7067 25.6063C44.5057 25.7499 44.2042 25.9366 43.8021 26.1663C43.0268 26.6401 42.4955 26.9991 42.2371 27.2575C41.8781 27.6309 41.6484 28.0185 41.5479 28.4493H46.7743Z" fill="#8752FE"/>
<path d="M27.0277 29.5549V26.3817H23.8976V25.5346H27.0277V22.3614H27.9754V25.5346H31.1055V26.3817H27.9754V29.5549H27.0277ZM36.9437 19.3892V29.5549H35.6084V22.1891H33.0526V21.2702C33.871 21.2702 34.5172 21.1409 35.0053 20.8681C35.4935 20.6097 35.8094 20.1071 35.9817 19.3892H36.9437ZM46.7743 28.4493L46.7599 29.5549H40.1264C40.1551 28.9949 40.2413 28.5067 40.3849 28.076C40.5284 27.6596 40.7582 27.2863 41.0597 26.9417C41.3612 26.5971 41.6484 26.3243 41.9355 26.0945C42.2227 25.8792 42.6391 25.6063 43.156 25.2761C43.9888 24.7592 44.52 24.3715 44.7785 24.1131C45.3241 23.5962 45.5825 23.0075 45.5825 22.3614C45.5825 21.8014 45.4102 21.3419 45.0369 20.983C44.678 20.624 44.2042 20.4374 43.6155 20.4374C42.9263 20.4374 42.4237 20.6815 42.1222 21.1696C41.8207 21.6578 41.6627 22.2609 41.634 22.9931H40.3992V22.7203C40.3992 21.7153 40.7007 20.9112 41.3038 20.2938C41.9068 19.6907 42.6965 19.3749 43.6729 19.3749C44.6493 19.3749 45.4102 19.6477 45.9846 20.1789C46.5589 20.7245 46.8461 21.4425 46.8461 22.3327C46.8461 22.7203 46.7886 23.0793 46.6594 23.4239C46.5302 23.7685 46.3866 24.0413 46.2287 24.271C46.0707 24.5008 45.8266 24.7449 45.5108 25.0033C45.1949 25.2618 44.9221 25.4628 44.7067 25.6063C44.5057 25.7499 44.2042 25.9366 43.8021 26.1663C43.0268 26.6401 42.4955 26.9991 42.2371 27.2575C41.8781 27.6309 41.6484 28.0185 41.5479 28.4493H46.7743Z" fill="#1D1235" fill-opacity="0.2"/>
<defs>
<filter id="filter0_d_4_2037" x="5.72205e-06" y="2.43187e-05" width="74.0002" height="57.433" filterUnits="userSpaceOnUse" color-interpolation-filters="sRGB">
<feFlood flood-opacity="0" result="BackgroundImageFix"/>
<feColorMatrix in="SourceAlpha" type="matrix" values="0 0 0 0 0 0 0 0 0 0 0 0 0 0 0 0 0 0 127 0" result="hardAlpha"/>
<feOffset dy="4.41793"/>
<feGaussianBlur stdDeviation="6.62689"/>
<feComposite in2="hardAlpha" operator="out"/>
<feColorMatrix type="matrix" values="0 0 0 0 0 0 0 0 0 0 0 0 0 0 0 0 0 0 0.12 0"/>
<feBlend mode="normal" in2="BackgroundImageFix" result="effect1_dropShadow_4_2037"/>
<feBlend mode="normal" in="SourceGraphic" in2="effect1_dropShadow_4_2037" result="shape"/>
</filter>
</defs>
</svg>
