<svg width="24" height="36" viewBox="0 0 24 36" fill="none" xmlns="http://www.w3.org/2000/svg">
<path d="M11.8638 17.6287C11.8638 14.3835 14.5011 11.7526 17.7544 11.7526C21.0076 11.7526 23.6449 14.3835 23.6449 17.6287C23.6449 20.8741 21.0076 23.5049 17.7544 23.5049C14.5011 23.5049 11.8638 20.874 11.8638 17.6287Z" fill="#00BCFF"/>
<path d="M0.0826416 29.3809C0.0826416 26.1356 2.71994 23.5048 5.97319 23.5048L9.11233 21.8515L11.8637 23.5048V29.3809C11.8637 32.6263 9.22644 35.257 5.97319 35.257C2.71994 35.257 0.0826416 32.6262 0.0826416 29.3809Z" fill="#00CF7F"/>
<path d="M11.8639 6.10352e-05L8.65851 5.55508L11.8639 11.7523H17.6718C20.9251 11.7523 23.5623 9.12147 23.5623 5.87618C23.5623 2.6309 20.925 6.10352e-05 17.6718 6.10352e-05H11.8639Z" fill="#FF7361"/>
<path d="M0 5.87612C0 9.12141 2.63729 11.7522 5.89054 11.7522L9.01533 12.9562L11.8637 11.7522V0H5.89047C2.63729 0 0 2.63084 0 5.87612Z" fill="#FF4D12"/>
<path d="M0.0826416 17.6288C0.0826416 20.8742 2.71994 23.5049 5.97319 23.5049H11.8637V11.7526H5.97319C2.71994 11.7526 0.0826416 14.3835 0.0826416 17.6288Z" fill="#B659FF"/>
</svg>
