<svg width="32" height="32" viewBox="0 0 32 32" fill="none" xmlns="http://www.w3.org/2000/svg">
<mask id="path-1-inside-1_4_1912" fill="white">
<path d="M0 16C0 7.16344 7.16344 0 16 0C24.8366 0 32 7.16344 32 16C32 24.8366 24.8366 32 16 32C7.16344 32 0 24.8366 0 16Z"/>
</mask>
<path d="M0 16C0 7.16344 7.16344 0 16 0C24.8366 0 32 7.16344 32 16C32 24.8366 24.8366 32 16 32C7.16344 32 0 24.8366 0 16Z" fill="white" fill-opacity="0.1"/>
<path d="M0 0H32H0ZM32 32H0H32ZM15 32C6.16344 32 -1 24.8366 -1 16C-1 7.16344 6.16344 0 15 0H16C7.71573 0 1 7.16344 1 16C1 24.8366 7.71573 32 16 32H15ZM32 0V32V0Z" fill="url(#paint0_linear_4_1912)" fill-opacity="0.75" mask="url(#path-1-inside-1_4_1912)"/>
<path d="M15.5926 20.8889C15.5926 20.8889 10.7037 17.2883 10.7037 16C10.7037 14.7116 15.5926 11.1111 15.5926 11.1111" stroke="white" stroke-width="1.2" stroke-linecap="round" stroke-linejoin="round"/>
<path d="M21.2963 20.8889C21.2963 20.8889 16.4074 17.2883 16.4074 16C16.4074 14.7116 21.2963 11.1111 21.2963 11.1111" stroke="white" stroke-width="1.2" stroke-linecap="round" stroke-linejoin="round"/>
<defs>
<linearGradient id="paint0_linear_4_1912" x1="16" y1="0" x2="16" y2="32" gradientUnits="userSpaceOnUse">
<stop stop-color="white" stop-opacity="0.06"/>
<stop offset="0.471174" stop-color="white"/>
<stop offset="1" stop-color="white" stop-opacity="0.06"/>
</linearGradient>
</defs>
</svg>
