<svg width="28" height="28" viewBox="0 0 28 28" fill="none" xmlns="http://www.w3.org/2000/svg">
<path d="M14.3613 14.0003C14.3613 11.607 16.3014 9.66687 18.6946 9.66687C21.0878 9.66687 23.0279 11.6071 23.0279 14.0003C23.0279 16.3936 21.0878 18.3337 18.6946 18.3337C16.3014 18.3337 14.3613 16.3935 14.3613 14.0003Z" fill="#00BCFF"/>
<path d="M5.6944 22.6666C5.6944 20.2734 7.63449 18.3332 10.0277 18.3332L12.337 17.114L14.361 18.3332V22.6666C14.361 25.06 12.4209 27 10.0277 27C7.63449 27 5.6944 25.0599 5.6944 22.6666Z" fill="#00CF7F"/>
<path d="M14.3615 1L12.0035 5.0966L14.3615 9.66681H18.634C21.0273 9.66681 22.9673 7.72667 22.9673 5.3334C22.9673 2.94014 21.0272 1 18.634 1H14.3615Z" fill="#FF7361"/>
<path d="M5.63379 5.3334C5.63379 7.72667 7.57388 9.66681 9.9671 9.66681L12.2658 10.5547L14.3612 9.66681V1H9.96704C7.57388 1 5.63379 2.94014 5.63379 5.3334Z" fill="#FF4D12"/>
<path d="M5.6944 14.0003C5.6944 16.3936 7.63449 18.3337 10.0277 18.3337H14.361V9.66687H10.0277C7.63449 9.66687 5.6944 11.6071 5.6944 14.0003Z" fill="#B659FF"/>
</svg>
