<svg width="216" height="176" viewBox="0 0 216 176" fill="none" xmlns="http://www.w3.org/2000/svg">
<path d="M0 44.1793V131.214C0 152.041 0 162.454 6.4699 168.924C12.9398 175.394 23.3529 175.394 44.1792 175.394H171.195C192.021 175.394 202.434 175.394 208.904 168.924C215.374 162.454 215.374 152.041 215.374 131.214V78.4578C215.374 57.6315 215.374 47.2184 208.904 40.7485C202.434 34.2785 192.021 34.2785 171.195 34.2785H119.863C111.815 34.2785 107.791 34.2785 104.185 32.9894C102.208 32.2829 100.343 31.2984 98.6446 30.0656C95.5453 27.8159 93.2745 24.4938 88.733 17.8497L88.7329 17.8496C83.7986 10.6309 81.3315 7.02151 77.9642 4.5773C76.1188 3.23787 74.0921 2.16823 71.945 1.40067C68.0269 0 63.6549 0 54.9108 0H44.1793C23.353 0 12.9398 0 6.4699 6.4699C0 12.9398 0 23.353 0 44.1793Z" fill="white"/>
</svg>
