<svg width="20" height="20" viewBox="0 0 20 20" fill="none" xmlns="http://www.w3.org/2000/svg">
<path d="M5.83337 2.08337C4.66062 2.22117 3.8536 2.51244 3.24274 3.12807C2.08337 4.2965 2.08337 6.17706 2.08337 9.93821C2.08337 13.6993 2.08337 15.5799 3.24274 16.7483C4.40212 17.9167 6.26809 17.9167 10 17.9167C13.732 17.9167 15.598 17.9167 16.7574 16.7483C17.9167 15.5799 17.9167 13.6993 17.9167 9.93821C17.9167 6.17706 17.9167 4.2965 16.7574 3.12807C16.1465 2.51244 15.3395 2.22117 14.1667 2.08337" stroke="#515B69" stroke-width="1.25" stroke-linecap="round" stroke-linejoin="round"/>
<path d="M7.91663 6.66671C8.32623 7.08812 9.41646 8.75004 9.99996 8.75004M9.99996 8.75004C10.5835 8.75004 11.6737 7.08812 12.0833 6.66671M9.99996 8.75004V2.08337" stroke="#515B69" stroke-width="1.25" stroke-linecap="round" stroke-linejoin="round"/>
<path d="M17.9167 11.25H13.812C13.1102 11.25 12.5589 11.8363 12.2496 12.456C11.9136 13.1292 11.2408 13.75 10 13.75C8.75929 13.75 8.08648 13.1292 7.75049 12.456C7.44122 11.8363 6.88985 11.25 6.18809 11.25H2.08337" stroke="#515B69" stroke-width="1.25" stroke-linejoin="round"/>
</svg>
