<svg width="27" height="35" viewBox="0 0 27 35" fill="none" xmlns="http://www.w3.org/2000/svg">
<g clip-path="url(#clip0_4_3561)">
<path d="M23.985 13.9239C23.9974 13.8485 24.0025 13.7721 24 13.6957C24 10.8705 22.8937 8.16112 20.9246 6.16345C18.9555 4.16578 16.2848 3.0435 13.5 3.0435C10.7152 3.0435 8.04452 4.16578 6.07539 6.16345C4.10626 8.16112 3.00002 10.8705 3.00002 13.6957C2.99754 13.7721 3.00257 13.8485 3.01505 13.9239C2.01724 13.7712 1.00951 13.6949 0.000411987 13.6957C0.000411987 10.0633 1.42275 6.57972 3.95452 4.01125C6.48629 1.44278 9.92011 -0.000167847 13.5006 -0.000167847C17.081 -0.000167847 20.5149 1.44278 23.0466 4.01125C25.5784 6.57972 27.0007 10.0633 27.0007 13.6957C25.9913 13.6948 24.9831 13.7711 23.985 13.9239Z" fill="#331D68"/>
<path d="M20.9996 13.6957C21.0021 14.0011 20.982 14.3063 20.9397 14.6087C19.6973 14.987 18.4922 15.4811 17.3397 16.0848C17.7564 15.3928 17.9839 14.6006 17.9988 13.7898C18.0136 12.979 17.8153 12.1787 17.4242 11.4715C17.0332 10.7642 16.4634 10.1753 15.7736 9.76551C15.0838 9.35568 14.2989 9.13966 13.4995 9.13966C12.7001 9.13966 11.9152 9.35568 11.2254 9.76551C10.5356 10.1753 9.96586 10.7642 9.57478 11.4715C9.1837 12.1787 8.98539 12.979 9.00025 13.7898C9.01511 14.6006 9.2426 15.3928 9.65933 16.0848C8.5068 15.4811 7.30167 14.987 6.05934 14.6087C6.01697 14.3063 5.99693 14.0011 5.99938 13.6957C5.99938 11.6777 6.78955 9.74242 8.19607 8.31552C9.60258 6.88862 11.5102 6.08699 13.4993 6.08699C15.4885 6.08699 17.3961 6.88862 18.8026 8.31552C20.2091 9.74242 20.9993 11.6777 20.9993 13.6957H20.9996Z" fill="#331D68"/>
<path d="M13.5 12.1739C13.2033 12.1739 12.9133 12.2632 12.6666 12.4304C12.42 12.5976 12.2277 12.8353 12.1142 13.1133C12.0006 13.3914 11.9709 13.6974 12.0288 13.9925C12.0867 14.2877 12.2295 14.5589 12.4393 14.7717C12.6491 14.9845 12.9164 15.1295 13.2074 15.1882C13.4983 15.2469 13.7999 15.2168 14.074 15.1016C14.3481 14.9864 14.5824 14.7914 14.7472 14.5411C14.912 14.2909 15 13.9966 15 13.6957C15 13.2921 14.842 12.905 14.5607 12.6196C14.2794 12.3342 13.8978 12.1739 13.5 12.1739Z" fill="#331D68"/>
<path d="M27 16.7391V13.6957C15.402 13.6957 6.00003 23.2339 6.00003 35H8.99997C8.99997 24.9307 17.0748 16.7391 27 16.7391Z" fill="#4C318F"/>
<path d="M27 28.9131V25.8696C25.8181 25.8696 24.6478 26.1057 23.5558 26.5646C22.4639 27.0234 21.4717 27.696 20.636 28.5438C19.8003 29.3916 19.1374 30.3982 18.6851 31.5059C18.2328 32.6137 18 33.801 18 35H20.9996C21.0014 33.3861 21.6342 31.8389 22.7591 30.6978C23.884 29.5567 25.4092 28.9148 27 28.9131Z" fill="#4C318F"/>
<path d="M27 22.8262V19.7827C23.0218 19.7827 19.2065 21.3859 16.3934 24.2397C13.5804 27.0935 12 30.9641 12 35H15C15 28.2873 20.3836 22.8262 27 22.8262Z" fill="#4C318F"/>
<path d="M6.84 29.0652C6.27805 30.9918 5.9952 32.9909 6.00034 35C6.00056 34.2006 5.84551 33.409 5.54405 32.6704C5.2426 31.9318 4.80065 31.2606 4.24345 30.6954C3.68625 30.1301 3.02472 29.6818 2.29667 29.376C1.56861 29.0701 0.788298 28.9129 0.000305176 28.9131V25.8696C1.30002 25.8708 2.58413 26.1569 3.76467 26.7085C4.94521 27.2601 5.99427 28.064 6.84 29.0652Z" fill="#7F4EF5"/>
<path d="M9.51006 23.2217C8.93546 24.0826 8.42887 24.9882 7.99502 25.9301C5.79504 23.9363 2.94993 22.8317 -1.52588e-05 22.8258V19.7827C3.46668 19.7787 6.82752 20.994 9.51006 23.2217Z" fill="#7F4EF5"/>
<path d="M13.5 18.7022C12.7257 19.348 12.0033 20.0553 11.3396 20.8174C8.13694 18.1711 4.13053 16.7302 -1.52588e-05 16.7391V13.6957C4.9427 13.6882 9.72725 15.4626 13.5 18.7022Z" fill="#7F4EF5"/>
</g>
<defs>
<clipPath id="clip0_4_3561">
<rect width="27" height="35" fill="white"/>
</clipPath>
</defs>
</svg>
