<svg width="45" height="45" viewBox="0 0 45 45" fill="none" xmlns="http://www.w3.org/2000/svg">
<mask id="path-1-inside-1_4_3688" fill="white">
<path d="M0 22.5C0 12.6376 0 7.70633 2.72387 4.38728C3.22253 3.77967 3.77967 3.22253 4.38728 2.72387C7.70633 0 12.6376 0 22.5 0C32.3624 0 37.2937 0 40.6127 2.72387C41.2203 3.22253 41.7775 3.77967 42.2761 4.38728C45 7.70633 45 12.6376 45 22.5C45 32.3624 45 37.2937 42.2761 40.6127C41.7775 41.2203 41.2203 41.7775 40.6127 42.2761C37.2937 45 32.3624 45 22.5 45C12.6376 45 7.70633 45 4.38728 42.2761C3.77967 41.7775 3.22253 41.2203 2.72387 40.6127C0 37.2937 0 32.3624 0 22.5Z"/>
</mask>
<path d="M0 22.5C0 12.6376 0 7.70633 2.72387 4.38728C3.22253 3.77967 3.77967 3.22253 4.38728 2.72387C7.70633 0 12.6376 0 22.5 0C32.3624 0 37.2937 0 40.6127 2.72387C41.2203 3.22253 41.7775 3.77967 42.2761 4.38728C45 7.70633 45 12.6376 45 22.5C45 32.3624 45 37.2937 42.2761 40.6127C41.7775 41.2203 41.2203 41.7775 40.6127 42.2761C37.2937 45 32.3624 45 22.5 45C12.6376 45 7.70633 45 4.38728 42.2761C3.77967 41.7775 3.22253 41.2203 2.72387 40.6127C0 37.2937 0 32.3624 0 22.5Z" fill="#110A20"/>
<path d="M0 0H45H0ZM45 33C45 40.732 38.732 47 31 47H14C6.26801 47 0 40.732 0 33C0 38.5228 5.37258 43 12 43H33C39.6274 43 45 38.5228 45 33ZM0 45V0V45ZM45 0V45V0Z" fill="url(#paint0_linear_4_3688)" fill-opacity="0.75" mask="url(#path-1-inside-1_4_3688)"/>
<path d="M24.1903 30.4567C24 29.9973 24 29.4149 24 28.25C24 27.0851 24 26.5027 24.1903 26.0433C24.444 25.4307 24.9307 24.944 25.5433 24.6903C26.0027 24.5 26.5851 24.5 27.75 24.5C28.9149 24.5 29.4973 24.5 29.9567 24.6903C30.5693 24.944 31.056 25.4307 31.3097 26.0433C31.5 26.5027 31.5 27.0851 31.5 28.25C31.5 29.4149 31.5 29.9973 31.3097 30.4567C31.056 31.0693 30.5693 31.556 29.9567 31.8097C29.4973 32 28.9149 32 27.75 32C26.5851 32 26.0027 32 25.5433 31.8097C24.9307 31.556 24.444 31.0693 24.1903 30.4567Z" fill="white" stroke="white" stroke-width="1.2" stroke-linecap="square" stroke-linejoin="round"/>
<path d="M24.1903 19.9567C24 19.4973 24 18.9148 24 17.75C24 16.5851 24 16.0027 24.1903 15.5433C24.444 14.9307 24.9307 14.444 25.5433 14.1903C26.0027 14 26.5851 14 27.75 14C28.9149 14 29.4973 14 29.9567 14.1903C30.5693 14.444 31.056 14.9307 31.3097 15.5433C31.5 16.0027 31.5 16.5851 31.5 17.75C31.5 18.9148 31.5 19.4973 31.3097 19.9567C31.056 20.5693 30.5693 21.056 29.9567 21.3097C29.4973 21.5 28.9149 21.5 27.75 21.5C26.5851 21.5 26.0027 21.5 25.5433 21.3097C24.9307 21.056 24.444 20.5693 24.1903 19.9567Z" fill="white" stroke="white" stroke-width="1.2" stroke-linecap="square" stroke-linejoin="round"/>
<path d="M13.6903 30.4567C13.5 29.9973 13.5 29.4149 13.5 28.25C13.5 27.0851 13.5 26.5027 13.6903 26.0433C13.944 25.4307 14.4307 24.944 15.0433 24.6903C15.5027 24.5 16.0852 24.5 17.25 24.5C18.4149 24.5 18.9973 24.5 19.4567 24.6903C20.0693 24.944 20.556 25.4307 20.8097 26.0433C21 26.5027 21 27.0851 21 28.25C21 29.4149 21 29.9973 20.8097 30.4567C20.556 31.0693 20.0693 31.556 19.4567 31.8097C18.9973 32 18.4149 32 17.25 32C16.0852 32 15.5027 32 15.0433 31.8097C14.4307 31.556 13.944 31.0693 13.6903 30.4567Z" fill="white" stroke="white" stroke-width="1.2" stroke-linecap="square" stroke-linejoin="round"/>
<path d="M13.6903 19.9567C13.5 19.4973 13.5 18.9148 13.5 17.75C13.5 16.5851 13.5 16.0027 13.6903 15.5433C13.944 14.9307 14.4307 14.444 15.0433 14.1903C15.5027 14 16.0852 14 17.25 14C18.4149 14 18.9973 14 19.4567 14.1903C20.0693 14.444 20.556 14.9307 20.8097 15.5433C21 16.0027 21 16.5851 21 17.75C21 18.9148 21 19.4973 20.8097 19.9567C20.556 20.5693 20.0693 21.056 19.4567 21.3097C18.9973 21.5 18.4149 21.5 17.25 21.5C16.0852 21.5 15.5027 21.5 15.0433 21.3097C14.4307 21.056 13.944 20.5693 13.6903 19.9567Z" fill="white" stroke="white" stroke-width="1.2" stroke-linecap="square" stroke-linejoin="round"/>
<defs>
<linearGradient id="paint0_linear_4_3688" x1="0" y1="22.5" x2="45" y2="22.5" gradientUnits="userSpaceOnUse">
<stop stop-color="#7E48FF" stop-opacity="0.12"/>
<stop offset="0.471174" stop-color="#7E48FF"/>
<stop offset="1" stop-color="#7E48FF" stop-opacity="0.12"/>
</linearGradient>
</defs>
</svg>
