<svg width="44" height="27" viewBox="0 0 44 27" fill="none" xmlns="http://www.w3.org/2000/svg">
<path opacity="0.1" d="M0 4.71429C0 2.11066 2.11066 0 4.71429 0H30.5C37.9558 0 44 6.04416 44 13.5C44 20.9558 37.9558 27 30.5 27H4.71429C2.11066 27 0 24.8893 0 22.2857V4.71429Z" fill="white"/>
<path opacity="0.9" d="M34.198 9.032L29.998 13.036L34.366 19H32.686L29.074 13.932L27.422 15.5V19H26.106V9.032H27.422V13.974L32.476 9.032H34.198Z" fill="white"/>
<path d="M14.75 10.5V17.5C14.75 17.8461 14.8526 18.1845 15.0449 18.4722C15.2372 18.76 15.5105 18.9843 15.8303 19.1168C16.1501 19.2492 16.5019 19.2839 16.8414 19.2164C17.1809 19.1489 17.4927 18.9822 17.7374 18.7374C17.9822 18.4927 18.1489 18.1809 18.2164 17.8414C18.2839 17.5019 18.2492 17.1501 18.1168 16.8303C17.9843 16.5105 17.76 16.2372 17.4722 16.0449C17.1845 15.8526 16.8461 15.75 16.5 15.75H9.5C9.15388 15.75 8.81554 15.8526 8.52775 16.0449C8.23997 16.2372 8.01566 16.5105 7.88321 16.8303C7.75076 17.1501 7.7161 17.5019 7.78363 17.8414C7.85115 18.1809 8.01782 18.4927 8.26256 18.7374C8.50731 18.9822 8.81913 19.1489 9.15859 19.2164C9.49806 19.2839 9.84993 19.2492 10.1697 19.1168C10.4895 18.9843 10.7628 18.76 10.9551 18.4722C11.1474 18.1845 11.25 17.8461 11.25 17.5V10.5C11.25 10.1539 11.1474 9.81554 10.9551 9.52775C10.7628 9.23997 10.4895 9.01566 10.1697 8.88321C9.84993 8.75076 9.49806 8.7161 9.15859 8.78363C8.81913 8.85115 8.50731 9.01782 8.26256 9.26256C8.01782 9.50731 7.85115 9.81913 7.78363 10.1586C7.7161 10.4981 7.75076 10.8499 7.88321 11.1697C8.01566 11.4895 8.23997 11.7628 8.52775 11.9551C8.81554 12.1474 9.15388 12.25 9.5 12.25H16.5C16.8461 12.25 17.1845 12.1474 17.4722 11.9551C17.76 11.7628 17.9843 11.4895 18.1168 11.1697C18.2492 10.8499 18.2839 10.4981 18.2164 10.1586C18.1489 9.81913 17.9822 9.50731 17.7374 9.26256C17.4927 9.01782 17.1809 8.85115 16.8414 8.78363C16.5019 8.7161 16.1501 8.75076 15.8303 8.88321C15.5105 9.01566 15.2372 9.23997 15.0449 9.52775C14.8526 9.81554 14.75 10.1539 14.75 10.5Z" stroke="white" stroke-width="1.1" stroke-linecap="round" stroke-linejoin="round"/>
</svg>
