<svg width="16" height="16" viewBox="0 0 16 16" fill="none" xmlns="http://www.w3.org/2000/svg">
<g clip-path="url(#clip0_4_1920)">
<path d="M10.3333 8C10.3333 9.28867 9.28866 10.3333 7.99999 10.3333C6.71132 10.3333 5.66666 9.28867 5.66666 8C5.66666 6.71134 6.71132 5.66667 7.99999 5.66667C9.28866 5.66667 10.3333 6.71134 10.3333 8Z" stroke="white" stroke-width="1.2"/>
<path d="M13.8604 6.10134C14.3979 7.02787 14.6667 7.49107 14.6667 8C14.6667 8.50893 14.3979 8.97213 13.8604 9.89867L12.5779 12.1092C12.0425 13.032 11.7749 13.4935 11.3346 13.7467C10.8944 14 10.3601 14 9.29154 14H6.70848C5.63989 14 5.10561 14 4.66539 13.7467C4.22517 13.4935 3.95747 13.032 3.42208 12.1092L2.13962 9.89867C1.6021 8.97213 1.33334 8.50893 1.33334 8C1.33334 7.49107 1.6021 7.02787 2.13962 6.10133L3.42208 3.89081C3.95747 2.96797 4.22517 2.50656 4.66539 2.25328C5.10561 2 5.63989 2 6.70848 2H9.29154C10.3601 2 10.8944 2 11.3346 2.25328C11.7749 2.50656 12.0425 2.96798 12.5779 3.89081L13.8604 6.10134Z" stroke="white" stroke-width="1.2"/>
</g>
<defs>
<clipPath id="clip0_4_1920">
<rect width="16" height="16" fill="white"/>
</clipPath>
</defs>
</svg>
