<svg width="20" height="20" viewBox="0 0 20 20" fill="none" xmlns="http://www.w3.org/2000/svg">
<path d="M2.5 9.99134V12.0833C2.5 14.8332 2.5 16.2081 3.35427 17.0624C4.20854 17.9167 5.58347 17.9167 8.33333 17.9167H11.6667C14.4165 17.9167 15.7914 17.9167 16.6457 17.0624C17.5 16.2081 17.5 14.8332 17.5 12.0833V9.99134C17.5 8.59026 17.5 7.88979 17.2034 7.28339C16.9068 6.67699 16.3539 6.24691 15.248 5.38677L13.5813 4.09047C11.8609 2.75238 11.0007 2.08334 10 2.08334C8.99925 2.08334 8.13908 2.75238 6.41868 4.09047L4.75201 5.38677C3.64611 6.24691 3.09316 6.67699 2.79658 7.28339C2.5 7.88979 2.5 8.59026 2.5 9.99134Z" fill="white" stroke="white" stroke-width="1.2" stroke-linecap="round" stroke-linejoin="round"/>
<path d="M13.0001 14.0834C12.2006 14.7058 11.1503 15.0834 10.0001 15.0834C8.84984 15.0834 7.79965 14.7058 7.00012 14.0834" stroke="#8752FE" stroke-width="1.44" stroke-linecap="round" stroke-linejoin="round"/>
</svg>
