<svg width="20" height="20" viewBox="0 0 20 20" fill="none" xmlns="http://www.w3.org/2000/svg">
<path d="M1.66667 15.8333V6.29085C1.66667 5.08763 1.66667 4.48602 1.86944 4.01373C2.12226 3.42488 2.59155 2.95558 3.1804 2.70277C3.65269 2.5 4.24838 2.5 5.45752 2.5H5.86926C6.3735 2.5 6.85063 2.72828 7.16701 3.12091L8.68125 5M8.68125 5H13.3333C14.5001 5 15.0835 5 15.5292 5.22707C15.9212 5.42681 16.2398 5.74552 16.4396 6.13752C16.6667 6.58317 16.6667 7.16656 16.6667 8.33333V9.16667M8.68125 5H5.83334" stroke="white" stroke-width="1.25" stroke-linecap="round" stroke-linejoin="round"/>
<path d="M2.63169 12.9287L2.88036 12.3098C3.49191 10.7874 3.7977 10.0264 4.43534 9.59652C5.07298 9.16669 5.89631 9.16669 7.54298 9.16669H14.2599C16.5003 9.16669 17.6205 9.16669 18.1185 9.89894C18.6164 10.6313 18.2004 11.6669 17.3683 13.738L17.1197 14.3569C16.5081 15.8793 16.2023 16.6404 15.5647 17.0702C14.927 17.5 14.1037 17.5 12.457 17.5H5.7401C3.49968 17.5 2.37946 17.5 1.88152 16.7678C1.38358 16.0354 1.79961 14.9999 2.63169 12.9287Z" fill="white" fill-opacity="0.14" stroke="white" stroke-width="1.25" stroke-linejoin="round"/>
</svg>
