<svg width="20" height="20" viewBox="0 0 20 20" fill="none" xmlns="http://www.w3.org/2000/svg">
<path d="M3 5.625C2.65482 5.625 2.375 5.90482 2.375 6.25C2.375 6.59518 2.65482 6.875 3 6.875V6.25V5.625ZM3 13.125C2.65482 13.125 2.375 13.4048 2.375 13.75C2.375 14.0952 2.65482 14.375 3 14.375V13.75V13.125ZM7.66667 14.375C8.01184 14.375 8.29167 14.0952 8.29167 13.75C8.29167 13.4048 8.01184 13.125 7.66667 13.125V13.75V14.375ZM17 14.375C17.3452 14.375 17.625 14.0952 17.625 13.75C17.625 13.4048 17.3452 13.125 17 13.125V13.75V14.375ZM12.3333 5.625C11.9882 5.625 11.7083 5.90482 11.7083 6.25C11.7083 6.59518 11.9882 6.875 12.3333 6.875V6.25V5.625ZM17 6.875C17.3452 6.875 17.625 6.59518 17.625 6.25C17.625 5.90482 17.3452 5.625 17 5.625V6.25V6.875ZM5.45174 4.92597L4.87748 4.67929L4.87748 4.6793L5.45174 4.92597ZM6.2936 4.11418L6.06178 3.53376L6.06177 3.53377L6.2936 4.11418ZM9.03975 4.11418L9.27161 3.53378L9.27155 3.53375L9.03975 4.11418ZM9.88162 4.92597L10.4559 4.67936L10.4559 4.67928L9.88162 4.92597ZM9.88162 7.57403L10.4559 7.82072L10.4559 7.82064L9.88162 7.57403ZM9.03975 8.38582L9.27155 8.96625L9.27161 8.96622L9.03975 8.38582ZM6.2936 8.38582L6.06177 8.96623L6.06178 8.96624L6.2936 8.38582ZM5.45174 7.57403L4.87748 7.8207L4.87748 7.82071L5.45174 7.57403ZM10.1184 12.426L9.54413 12.1792L9.54408 12.1794L10.1184 12.426ZM10.9602 11.6142L10.7285 11.0337L10.7284 11.0338L10.9602 11.6142ZM13.7064 11.6142L13.9383 11.0338L13.9382 11.0337L13.7064 11.6142ZM14.5483 12.426L15.1226 12.1794L15.1225 12.1792L14.5483 12.426ZM14.5483 15.074L15.1225 15.3208L15.1226 15.3206L14.5483 15.074ZM13.7064 15.8858L13.9382 16.4663L13.9383 16.4662L13.7064 15.8858ZM10.9602 15.8858L10.7284 16.4662L10.7285 16.4663L10.9602 15.8858ZM10.1184 15.074L9.54408 15.3206L9.54413 15.3208L10.1184 15.074ZM3 6.25V6.875H5.33333V6.25V5.625H3V6.25ZM3 13.75V14.375H7.66667V13.75V13.125H3V13.75ZM14.6667 13.75V14.375H17V13.75V13.125H14.6667V13.75ZM12.3333 6.25V6.875H17V6.25V5.625H12.3333V6.25ZM5.33333 6.25H5.95833C5.95833 5.89168 5.9587 5.65539 5.97158 5.47338C5.98402 5.29744 6.0059 5.21946 6.02601 5.17264L5.45174 4.92597L4.87748 4.6793C4.77918 4.90815 4.74185 5.14273 4.72469 5.38516C4.70797 5.62151 4.70833 5.90941 4.70833 6.25H5.33333ZM5.45174 4.92597L6.026 5.17265C6.11661 4.96173 6.29366 4.78717 6.52543 4.69459L6.2936 4.11418L6.06177 3.53377C5.53124 3.74568 5.10264 4.15514 4.87748 4.67929L5.45174 4.92597ZM6.2936 4.11418L6.52542 4.6946C6.5817 4.67212 6.67011 4.65019 6.85657 4.63792C7.04822 4.62531 7.29602 4.625 7.66667 4.625V4V3.375C7.31252 3.375 7.01672 3.37469 6.77451 3.39062C6.5271 3.4069 6.29138 3.44206 6.06178 3.53376L6.2936 4.11418ZM7.66667 4V4.625C8.03731 4.625 8.28511 4.62531 8.47676 4.63792C8.66322 4.65019 8.75165 4.67212 8.80796 4.69461L9.03975 4.11418L9.27155 3.53375C9.04195 3.44206 8.80623 3.4069 8.55882 3.39062C8.31661 3.37469 8.02082 3.375 7.66667 3.375V4ZM9.03975 4.11418L8.8079 4.69458C9.03967 4.78717 9.21676 4.96175 9.30737 5.17266L9.88162 4.92597L10.4559 4.67928C10.2307 4.15512 9.80206 3.74568 9.27161 3.53378L9.03975 4.11418ZM9.88162 4.92597L9.30734 5.17259C9.32745 5.21942 9.34931 5.29742 9.36176 5.47337C9.37464 5.65539 9.375 5.89168 9.375 6.25H10H10.625C10.625 5.90941 10.6254 5.62152 10.6086 5.38517C10.5915 5.14275 10.5542 4.90819 10.4559 4.67936L9.88162 4.92597ZM10 6.25H9.375C9.375 6.60832 9.37464 6.84461 9.36176 7.02663C9.34931 7.20258 9.32745 7.28058 9.30734 7.32741L9.88162 7.57403L10.4559 7.82064C10.5542 7.59181 10.5915 7.35725 10.6086 7.11483C10.6254 6.87848 10.625 6.59059 10.625 6.25H10ZM9.88162 7.57403L9.30737 7.32734C9.21676 7.53825 9.03967 7.71283 8.8079 7.80542L9.03975 8.38582L9.27161 8.96622C9.80206 8.75432 10.2307 8.34488 10.4559 7.82072L9.88162 7.57403ZM9.03975 8.38582L8.80796 7.80539C8.75165 7.82788 8.66322 7.84981 8.47676 7.86208C8.28511 7.87469 8.03731 7.875 7.66667 7.875V8.5V9.125C8.02082 9.125 8.31661 9.12532 8.55882 9.10938C8.80623 9.0931 9.04195 9.05794 9.27155 8.96625L9.03975 8.38582ZM7.66667 8.5V7.875C7.29602 7.875 7.04822 7.87469 6.85657 7.86208C6.67011 7.84981 6.5817 7.82788 6.52542 7.8054L6.2936 8.38582L6.06178 8.96624C6.29138 9.05794 6.5271 9.0931 6.77451 9.10938C7.01672 9.12532 7.31252 9.125 7.66667 9.125V8.5ZM6.2936 8.38582L6.52543 7.80541C6.29366 7.71283 6.11661 7.53827 6.026 7.32735L5.45174 7.57403L4.87748 7.82071C5.10264 8.34486 5.53124 8.75432 6.06177 8.96623L6.2936 8.38582ZM5.45174 7.57403L6.02601 7.32736C6.0059 7.28054 5.98402 7.20256 5.97158 7.02662C5.9587 6.84461 5.95833 6.60832 5.95833 6.25H5.33333H4.70833C4.70833 6.59059 4.70797 6.87849 4.72469 7.11484C4.74185 7.35728 4.77918 7.59185 4.87748 7.8207L5.45174 7.57403ZM10 13.75H10.625C10.625 13.3917 10.6254 13.1554 10.6382 12.9734C10.6507 12.7974 10.6726 12.7194 10.6927 12.6725L10.1184 12.426L9.54408 12.1794C9.44583 12.4082 9.4085 12.6427 9.39136 12.8852C9.37464 13.1215 9.375 13.4094 9.375 13.75H10ZM10.1184 12.426L10.6926 12.6727C10.7832 12.4618 10.9604 12.2871 11.1921 12.1946L10.9602 11.6142L10.7284 11.0338C10.1979 11.2457 9.7693 11.6551 9.54413 12.1792L10.1184 12.426ZM10.9602 11.6142L11.192 12.1946C11.2483 12.1721 11.3368 12.1502 11.5232 12.1379C11.7149 12.1253 11.9627 12.125 12.3333 12.125V11.5V10.875C11.9792 10.875 11.6834 10.8747 11.4412 10.8906C11.1938 10.9069 10.9581 10.942 10.7285 11.0337L10.9602 11.6142ZM12.3333 11.5V12.125C12.704 12.125 12.9518 12.1253 13.1434 12.1379C13.3299 12.1502 13.4184 12.1721 13.4747 12.1946L13.7064 11.6142L13.9382 11.0337C13.7086 10.942 13.4729 10.9069 13.2255 10.8906C12.9833 10.8747 12.6875 10.875 12.3333 10.875V11.5ZM13.7064 11.6142L13.4746 12.1946C13.7063 12.2871 13.8834 12.4618 13.974 12.6727L14.5483 12.426L15.1225 12.1792C14.8974 11.6551 14.4688 11.2457 13.9383 11.0338L13.7064 11.6142ZM14.5483 12.426L13.974 12.6725C13.9941 12.7194 14.016 12.7974 14.0284 12.9734C14.0413 13.1554 14.0417 13.3917 14.0417 13.75H14.6667H15.2917C15.2917 13.4094 15.292 13.1215 15.2753 12.8852C15.2582 12.6427 15.2208 12.4082 15.1226 12.1794L14.5483 12.426ZM14.6667 13.75H14.0417C14.0417 14.1083 14.0413 14.3446 14.0284 14.5266C14.016 14.7026 13.9941 14.7806 13.974 14.8275L14.5483 15.074L15.1226 15.3206C15.2208 15.0918 15.2582 14.8573 15.2753 14.6148C15.292 14.3785 15.2917 14.0906 15.2917 13.75H14.6667ZM14.5483 15.074L13.974 14.8273C13.8834 15.0382 13.7063 15.2129 13.4746 15.3054L13.7064 15.8858L13.9383 16.4662C14.4688 16.2543 14.8974 15.8449 15.1225 15.3208L14.5483 15.074ZM13.7064 15.8858L13.4747 15.3054C13.4184 15.3279 13.3299 15.3498 13.1434 15.3621C12.9518 15.3747 12.704 15.375 12.3333 15.375V16V16.625C12.6875 16.625 12.9833 16.6253 13.2255 16.6094C13.4729 16.5931 13.7086 16.558 13.9382 16.4663L13.7064 15.8858ZM12.3333 16V15.375C11.9627 15.375 11.7149 15.3747 11.5232 15.3621C11.3368 15.3498 11.2483 15.3279 11.192 15.3054L10.9602 15.8858L10.7285 16.4663C10.9581 16.558 11.1938 16.5931 11.4412 16.6094C11.6834 16.6253 11.9792 16.625 12.3333 16.625V16ZM10.9602 15.8858L11.1921 15.3054C10.9604 15.2129 10.7832 15.0382 10.6926 14.8273L10.1184 15.074L9.54413 15.3208C9.7693 15.8449 10.1979 16.2543 10.7284 16.4662L10.9602 15.8858ZM10.1184 15.074L10.6927 14.8275C10.6726 14.7806 10.6507 14.7026 10.6382 14.5266C10.6254 14.3446 10.625 14.1083 10.625 13.75H10H9.375C9.375 14.0906 9.37464 14.3785 9.39136 14.6148C9.4085 14.8573 9.44583 15.0918 9.54408 15.3206L10.1184 15.074Z" fill="#1D1235"/>
<path d="M3 5.625C2.65482 5.625 2.375 5.90482 2.375 6.25C2.375 6.59518 2.65482 6.875 3 6.875V6.25V5.625ZM3 13.125C2.65482 13.125 2.375 13.4048 2.375 13.75C2.375 14.0952 2.65482 14.375 3 14.375V13.75V13.125ZM7.66667 14.375C8.01184 14.375 8.29167 14.0952 8.29167 13.75C8.29167 13.4048 8.01184 13.125 7.66667 13.125V13.75V14.375ZM17 14.375C17.3452 14.375 17.625 14.0952 17.625 13.75C17.625 13.4048 17.3452 13.125 17 13.125V13.75V14.375ZM12.3333 5.625C11.9882 5.625 11.7083 5.90482 11.7083 6.25C11.7083 6.59518 11.9882 6.875 12.3333 6.875V6.25V5.625ZM17 6.875C17.3452 6.875 17.625 6.59518 17.625 6.25C17.625 5.90482 17.3452 5.625 17 5.625V6.25V6.875ZM5.45174 4.92597L4.87748 4.67929L4.87748 4.6793L5.45174 4.92597ZM6.2936 4.11418L6.06178 3.53376L6.06177 3.53377L6.2936 4.11418ZM9.03975 4.11418L9.27161 3.53378L9.27155 3.53375L9.03975 4.11418ZM9.88162 4.92597L10.4559 4.67936L10.4559 4.67928L9.88162 4.92597ZM9.88162 7.57403L10.4559 7.82072L10.4559 7.82064L9.88162 7.57403ZM9.03975 8.38582L9.27155 8.96625L9.27161 8.96622L9.03975 8.38582ZM6.2936 8.38582L6.06177 8.96623L6.06178 8.96624L6.2936 8.38582ZM5.45174 7.57403L4.87748 7.8207L4.87748 7.82071L5.45174 7.57403ZM10.1184 12.426L9.54413 12.1792L9.54408 12.1794L10.1184 12.426ZM10.9602 11.6142L10.7285 11.0337L10.7284 11.0338L10.9602 11.6142ZM13.7064 11.6142L13.9383 11.0338L13.9382 11.0337L13.7064 11.6142ZM14.5483 12.426L15.1226 12.1794L15.1225 12.1792L14.5483 12.426ZM14.5483 15.074L15.1225 15.3208L15.1226 15.3206L14.5483 15.074ZM13.7064 15.8858L13.9382 16.4663L13.9383 16.4662L13.7064 15.8858ZM10.9602 15.8858L10.7284 16.4662L10.7285 16.4663L10.9602 15.8858ZM10.1184 15.074L9.54408 15.3206L9.54413 15.3208L10.1184 15.074ZM3 6.25V6.875H5.33333V6.25V5.625H3V6.25ZM3 13.75V14.375H7.66667V13.75V13.125H3V13.75ZM14.6667 13.75V14.375H17V13.75V13.125H14.6667V13.75ZM12.3333 6.25V6.875H17V6.25V5.625H12.3333V6.25ZM5.33333 6.25H5.95833C5.95833 5.89168 5.9587 5.65539 5.97158 5.47338C5.98402 5.29744 6.0059 5.21946 6.02601 5.17264L5.45174 4.92597L4.87748 4.6793C4.77918 4.90815 4.74185 5.14273 4.72469 5.38516C4.70797 5.62151 4.70833 5.90941 4.70833 6.25H5.33333ZM5.45174 4.92597L6.026 5.17265C6.11661 4.96173 6.29366 4.78717 6.52543 4.69459L6.2936 4.11418L6.06177 3.53377C5.53124 3.74568 5.10264 4.15514 4.87748 4.67929L5.45174 4.92597ZM6.2936 4.11418L6.52542 4.6946C6.5817 4.67212 6.67011 4.65019 6.85657 4.63792C7.04822 4.62531 7.29602 4.625 7.66667 4.625V4V3.375C7.31252 3.375 7.01672 3.37469 6.77451 3.39062C6.5271 3.4069 6.29138 3.44206 6.06178 3.53376L6.2936 4.11418ZM7.66667 4V4.625C8.03731 4.625 8.28511 4.62531 8.47676 4.63792C8.66322 4.65019 8.75165 4.67212 8.80796 4.69461L9.03975 4.11418L9.27155 3.53375C9.04195 3.44206 8.80623 3.4069 8.55882 3.39062C8.31661 3.37469 8.02082 3.375 7.66667 3.375V4ZM9.03975 4.11418L8.8079 4.69458C9.03967 4.78717 9.21676 4.96175 9.30737 5.17266L9.88162 4.92597L10.4559 4.67928C10.2307 4.15512 9.80206 3.74568 9.27161 3.53378L9.03975 4.11418ZM9.88162 4.92597L9.30734 5.17259C9.32745 5.21942 9.34931 5.29742 9.36176 5.47337C9.37464 5.65539 9.375 5.89168 9.375 6.25H10H10.625C10.625 5.90941 10.6254 5.62152 10.6086 5.38517C10.5915 5.14275 10.5542 4.90819 10.4559 4.67936L9.88162 4.92597ZM10 6.25H9.375C9.375 6.60832 9.37464 6.84461 9.36176 7.02663C9.34931 7.20258 9.32745 7.28058 9.30734 7.32741L9.88162 7.57403L10.4559 7.82064C10.5542 7.59181 10.5915 7.35725 10.6086 7.11483C10.6254 6.87848 10.625 6.59059 10.625 6.25H10ZM9.88162 7.57403L9.30737 7.32734C9.21676 7.53825 9.03967 7.71283 8.8079 7.80542L9.03975 8.38582L9.27161 8.96622C9.80206 8.75432 10.2307 8.34488 10.4559 7.82072L9.88162 7.57403ZM9.03975 8.38582L8.80796 7.80539C8.75165 7.82788 8.66322 7.84981 8.47676 7.86208C8.28511 7.87469 8.03731 7.875 7.66667 7.875V8.5V9.125C8.02082 9.125 8.31661 9.12532 8.55882 9.10938C8.80623 9.0931 9.04195 9.05794 9.27155 8.96625L9.03975 8.38582ZM7.66667 8.5V7.875C7.29602 7.875 7.04822 7.87469 6.85657 7.86208C6.67011 7.84981 6.5817 7.82788 6.52542 7.8054L6.2936 8.38582L6.06178 8.96624C6.29138 9.05794 6.5271 9.0931 6.77451 9.10938C7.01672 9.12532 7.31252 9.125 7.66667 9.125V8.5ZM6.2936 8.38582L6.52543 7.80541C6.29366 7.71283 6.11661 7.53827 6.026 7.32735L5.45174 7.57403L4.87748 7.82071C5.10264 8.34486 5.53124 8.75432 6.06177 8.96623L6.2936 8.38582ZM5.45174 7.57403L6.02601 7.32736C6.0059 7.28054 5.98402 7.20256 5.97158 7.02662C5.9587 6.84461 5.95833 6.60832 5.95833 6.25H5.33333H4.70833C4.70833 6.59059 4.70797 6.87849 4.72469 7.11484C4.74185 7.35728 4.77918 7.59185 4.87748 7.8207L5.45174 7.57403ZM10 13.75H10.625C10.625 13.3917 10.6254 13.1554 10.6382 12.9734C10.6507 12.7974 10.6726 12.7194 10.6927 12.6725L10.1184 12.426L9.54408 12.1794C9.44583 12.4082 9.4085 12.6427 9.39136 12.8852C9.37464 13.1215 9.375 13.4094 9.375 13.75H10ZM10.1184 12.426L10.6926 12.6727C10.7832 12.4618 10.9604 12.2871 11.1921 12.1946L10.9602 11.6142L10.7284 11.0338C10.1979 11.2457 9.7693 11.6551 9.54413 12.1792L10.1184 12.426ZM10.9602 11.6142L11.192 12.1946C11.2483 12.1721 11.3368 12.1502 11.5232 12.1379C11.7149 12.1253 11.9627 12.125 12.3333 12.125V11.5V10.875C11.9792 10.875 11.6834 10.8747 11.4412 10.8906C11.1938 10.9069 10.9581 10.942 10.7285 11.0337L10.9602 11.6142ZM12.3333 11.5V12.125C12.704 12.125 12.9518 12.1253 13.1434 12.1379C13.3299 12.1502 13.4184 12.1721 13.4747 12.1946L13.7064 11.6142L13.9382 11.0337C13.7086 10.942 13.4729 10.9069 13.2255 10.8906C12.9833 10.8747 12.6875 10.875 12.3333 10.875V11.5ZM13.7064 11.6142L13.4746 12.1946C13.7063 12.2871 13.8834 12.4618 13.974 12.6727L14.5483 12.426L15.1225 12.1792C14.8974 11.6551 14.4688 11.2457 13.9383 11.0338L13.7064 11.6142ZM14.5483 12.426L13.974 12.6725C13.9941 12.7194 14.016 12.7974 14.0284 12.9734C14.0413 13.1554 14.0417 13.3917 14.0417 13.75H14.6667H15.2917C15.2917 13.4094 15.292 13.1215 15.2753 12.8852C15.2582 12.6427 15.2208 12.4082 15.1226 12.1794L14.5483 12.426ZM14.6667 13.75H14.0417C14.0417 14.1083 14.0413 14.3446 14.0284 14.5266C14.016 14.7026 13.9941 14.7806 13.974 14.8275L14.5483 15.074L15.1226 15.3206C15.2208 15.0918 15.2582 14.8573 15.2753 14.6148C15.292 14.3785 15.2917 14.0906 15.2917 13.75H14.6667ZM14.5483 15.074L13.974 14.8273C13.8834 15.0382 13.7063 15.2129 13.4746 15.3054L13.7064 15.8858L13.9383 16.4662C14.4688 16.2543 14.8974 15.8449 15.1225 15.3208L14.5483 15.074ZM13.7064 15.8858L13.4747 15.3054C13.4184 15.3279 13.3299 15.3498 13.1434 15.3621C12.9518 15.3747 12.704 15.375 12.3333 15.375V16V16.625C12.6875 16.625 12.9833 16.6253 13.2255 16.6094C13.4729 16.5931 13.7086 16.558 13.9382 16.4663L13.7064 15.8858ZM12.3333 16V15.375C11.9627 15.375 11.7149 15.3747 11.5232 15.3621C11.3368 15.3498 11.2483 15.3279 11.192 15.3054L10.9602 15.8858L10.7285 16.4663C10.9581 16.558 11.1938 16.5931 11.4412 16.6094C11.6834 16.6253 11.9792 16.625 12.3333 16.625V16ZM10.9602 15.8858L11.1921 15.3054C10.9604 15.2129 10.7832 15.0382 10.6926 14.8273L10.1184 15.074L9.54413 15.3208C9.7693 15.8449 10.1979 16.2543 10.7284 16.4662L10.9602 15.8858ZM10.1184 15.074L10.6927 14.8275C10.6726 14.7806 10.6507 14.7026 10.6382 14.5266C10.6254 14.3446 10.625 14.1083 10.625 13.75H10H9.375C9.375 14.0906 9.37464 14.3785 9.39136 14.6148C9.4085 14.8573 9.44583 15.0918 9.54408 15.3206L10.1184 15.074Z" fill="#1D1235" fill-opacity="0.5"/>
</svg>
