<svg width="40" height="40" viewBox="0 0 40 40" fill="none" xmlns="http://www.w3.org/2000/svg">
<mask id="path-1-inside-1_4_3119" fill="white">
<path d="M0 20C0 8.95431 8.95431 0 20 0C31.0457 0 40 8.95431 40 20C40 31.0457 31.0457 40 20 40C8.95431 40 0 31.0457 0 20Z"/>
</mask>
<path d="M0 20C0 8.95431 8.95431 0 20 0C31.0457 0 40 8.95431 40 20C40 31.0457 31.0457 40 20 40C8.95431 40 0 31.0457 0 20Z" fill="#1075FF" fill-opacity="0.2"/>
<path d="M0 20C0 8.95431 8.95431 0 20 0C31.0457 0 40 8.95431 40 20C40 31.0457 31.0457 40 20 40C8.95431 40 0 31.0457 0 20Z" fill="white" fill-opacity="0.35"/>
<path d="M0 0H40H0ZM40.2 21.3C40.2 32.4562 31.1562 41.5 20 41.5V41.5C8.84385 41.5 -0.2 32.4562 -0.2 21.3L0.2 20C0.2 30.2173 9.06476 38.5 20 38.5V38.5C30.9352 38.5 39.8 30.2173 39.8 20L40.2 21.3ZM20 41.5C8.84385 41.5 -0.2 32.4562 -0.2 21.3V20.2C-0.2 9.04385 8.84385 0 20 0V0C9.06476 0 0.2 8.9543 0.2 20C0.2 30.2173 9.06476 38.5 20 38.5V41.5ZM20 0C31.1562 0 40.2 9.04385 40.2 20.2V21.3C40.2 32.4562 31.1562 41.5 20 41.5V38.5C30.9352 38.5 39.8 30.2173 39.8 20C39.8 8.9543 30.9352 0 20 0V0Z" fill="url(#paint0_linear_4_3119)" mask="url(#path-1-inside-1_4_3119)"/>
<g clip-path="url(#clip0_4_3119)">
<path d="M30.45 17.4392C30.4507 18.1242 30.3107 18.802 30.0388 19.4306C29.2377 18.4844 28.1417 17.8348 26.9269 17.5864C26.7733 16.5729 26.3981 15.6058 25.828 14.7538C25.258 13.9019 24.5071 13.1861 23.6289 12.6575C24.1826 12.4498 24.7692 12.344 25.3605 12.3451C28.1624 12.3451 30.45 14.6373 30.45 17.4392Z" fill="url(#paint1_linear_4_3119)"/>
<path d="M14.186 27.6547C11.6296 27.6547 9.54999 25.5752 9.54999 23.0191C9.54999 20.7198 11.2713 18.75 13.5538 18.4369L13.9115 18.3878L13.9482 18.029C14.0991 16.53 14.8022 15.1408 15.9208 14.1316C17.0394 13.1224 18.4934 12.5654 20 12.5691C21.5072 12.5649 22.9621 13.1215 24.0817 14.1307C25.2013 15.1398 25.9055 16.5292 26.0575 18.0288L26.0946 18.3876L26.4521 18.4367C28.7313 18.7497 30.45 20.7194 30.45 23.0191C30.45 25.5752 28.373 27.6547 25.8199 27.6547H14.186Z" fill="url(#paint2_linear_4_3119)"/>
</g>
<defs>
<linearGradient id="paint0_linear_4_3119" x1="40" y1="20" x2="0" y2="20" gradientUnits="userSpaceOnUse">
<stop stop-color="#1075FF" stop-opacity="0.12"/>
<stop offset="0.500021" stop-color="#1075FF"/>
<stop offset="1" stop-color="#1075FF" stop-opacity="0.12"/>
</linearGradient>
<linearGradient id="paint1_linear_4_3119" x1="15.4581" y1="2.02952" x2="35.7016" y2="24.2145" gradientUnits="userSpaceOnUse">
<stop stop-color="#97E0FF"/>
<stop offset="1" stop-color="#1075FF"/>
</linearGradient>
<linearGradient id="paint2_linear_4_3119" x1="7.52511" y1="9.26839" x2="27.7686" y2="31.4532" gradientUnits="userSpaceOnUse">
<stop stop-color="#97E0FF"/>
<stop offset="1" stop-color="#1075FF"/>
</linearGradient>
<clipPath id="clip0_4_3119">
<rect width="22" height="22" fill="white" transform="translate(9 9)"/>
</clipPath>
</defs>
</svg>
