<svg width="16" height="16" viewBox="0 0 16 16" fill="none" xmlns="http://www.w3.org/2000/svg">
<g clip-path="url(#clip0_4_2990)">
<g filter="url(#filter0_d_4_2990)">
<path d="M8.00005 16.0001C12.4184 16.0001 16.0001 12.4184 16.0001 8.00005C16.0001 3.58175 12.4184 0 8.00005 0C3.58175 0 0 3.58175 0 8.00005C0 12.4184 3.58175 16.0001 8.00005 16.0001Z" fill="url(#paint0_linear_4_2990)"/>
<path d="M8.00005 16.0001C12.4184 16.0001 16.0001 12.4184 16.0001 8.00005C16.0001 3.58175 12.4184 0 8.00005 0C3.58175 0 0 3.58175 0 8.00005C0 12.4184 3.58175 16.0001 8.00005 16.0001Z" fill="#1D1235" fill-opacity="0.65"/>
</g>
<path d="M7.06826 12.1984C6.86816 12.1996 6.66979 12.1595 6.48454 12.0804C6.29929 12.0014 6.13079 11.8848 5.98872 11.7375L3.64717 9.35363C3.36086 9.05437 3.20001 8.64848 3.20001 8.22525C3.20001 7.80203 3.36086 7.39614 3.64717 7.09687C3.93349 6.79761 4.32181 6.62948 4.72672 6.62948C5.13162 6.62948 5.51995 6.79761 5.80626 7.09687L7.00744 8.36829L10.4893 4.71297C10.7757 4.39685 11.1704 4.21255 11.5867 4.20063C12.003 4.18871 12.4068 4.35014 12.7093 4.6494C13.0117 4.94866 13.188 5.36125 13.1994 5.7964C13.2108 6.23155 13.0564 6.6536 12.7701 6.96973L8.20862 11.7375C8.05941 11.8927 7.88101 12.0137 7.68472 12.0931C7.48842 12.1724 7.27851 12.2083 7.06826 12.1984Z" fill="white" stroke="#2B1C4C" stroke-width="1.7"/>
</g>
<defs>
<filter id="filter0_d_4_2990" x="-26" y="-20" width="80.0001" height="80.0001" filterUnits="userSpaceOnUse" color-interpolation-filters="sRGB">
<feFlood flood-opacity="0" result="BackgroundImageFix"/>
<feColorMatrix in="SourceAlpha" type="matrix" values="0 0 0 0 0 0 0 0 0 0 0 0 0 0 0 0 0 0 127 0" result="hardAlpha"/>
<feOffset dx="6" dy="12"/>
<feGaussianBlur stdDeviation="16"/>
<feComposite in2="hardAlpha" operator="out"/>
<feColorMatrix type="matrix" values="0 0 0 0 0 0 0 0 0 0 0 0 0 0 0 0 0 0 0.12 0"/>
<feBlend mode="normal" in2="BackgroundImageFix" result="effect1_dropShadow_4_2990"/>
<feBlend mode="normal" in="SourceGraphic" in2="effect1_dropShadow_4_2990" result="shape"/>
</filter>
<linearGradient id="paint0_linear_4_2990" x1="16.6667" y1="4.79837" x2="3.53841" y2="8.8447" gradientUnits="userSpaceOnUse">
<stop stop-color="#7B51DA"/>
<stop offset="1" stop-color="#7B51DA"/>
</linearGradient>
<clipPath id="clip0_4_2990">
<rect width="16" height="16" fill="white"/>
</clipPath>
</defs>
</svg>
